<?xml version="1.0" encoding="UTF-8"?>
<svg xmlns="http://www.w3.org/2000/svg" xmlns:xlink="http://www.w3.org/1999/xlink" width="238.05pt" height="102.57pt" viewBox="0 0 238.05 102.57" version="1.1">
<defs>
<clipPath id="clip1">
  <path d="M 0.359375 0.046875 L 238.050781 0.046875 L 238.050781 102.570313 L 0.359375 102.570313 Z M 0.359375 0.046875 "/>
</clipPath>
<filter id="alpha" filterUnits="objectBoundingBox" x="0%" y="0%" width="100%" height="100%">
  <feColorMatrix type="matrix" in="SourceGraphic" values="0 0 0 0 1 0 0 0 0 1 0 0 0 0 1 0 0 0 1 0"/>
</filter>
<mask id="mask0">
  <g filter="url(#alpha)">
<rect x="0" y="0" width="238.05" height="102.57" style="fill:rgb(0%,0%,0%);fill-opacity:0.399994;stroke:none;"/>
  </g>
</mask>
<clipPath id="clip3">
  <path d="M 215 70 L 238.050781 70 L 238.050781 102 L 215 102 Z M 215 70 "/>
</clipPath>
<clipPath id="clip4">
  <path d="M 119 0.046875 L 169 0.046875 L 169 67 L 119 67 Z M 119 0.046875 "/>
</clipPath>
<clipPath id="clip5">
  <path d="M 0.359375 64 L 28 64 L 28 102.570313 L 0.359375 102.570313 Z M 0.359375 64 "/>
</clipPath>
<clipPath id="clip2">
  <rect width="239" height="103"/>
</clipPath>
<g id="surface4" clip-path="url(#clip2)">
<path style=" stroke:none;fill-rule:evenodd;fill:rgb(10.998535%,5.899048%,3.898621%);fill-opacity:1;" d="M 130.136719 90.460938 C 130.769531 90.351563 131.261719 89.929688 131.261719 89.417969 L 131.261719 87.589844 C 131.261719 86.992188 130.769531 86.519531 130.136719 86.519531 L 129.445313 86.519531 C 128.617188 86.519531 127.910156 86.738281 126.917969 86.738281 C 124.984375 86.738281 123.671875 85.394531 123.671875 82.8125 L 123.671875 76.019531 L 128.804688 76.019531 C 129.445313 76.019531 129.949219 75.539063 129.949219 74.941406 L 129.949219 72.828125 C 129.949219 72.21875 129.445313 71.734375 128.804688 71.734375 L 123.671875 71.734375 L 123.671875 65.917969 C 123.671875 65.304688 123.191406 64.832031 122.53125 64.832031 L 118.347656 64.832031 C 117.703125 64.832031 117.214844 65.304688 117.214844 65.917969 L 117.214844 82.8125 C 117.214844 88.347656 119.878906 90.804688 125.230469 90.804688 C 126.917969 90.804688 128.988281 90.667969 130.136719 90.460938 "/>
<path style=" stroke:none;fill-rule:evenodd;fill:rgb(10.998535%,5.899048%,3.898621%);fill-opacity:1;" d="M 144.175781 86.863281 C 140.996094 86.863281 139.492188 84.996094 139.492188 80.488281 C 139.492188 75.976563 140.996094 74.164063 144.175781 74.164063 C 147.316406 74.164063 148.835938 75.976563 148.835938 80.488281 C 148.835938 84.996094 147.316406 86.863281 144.175781 86.863281 M 144.175781 70.289063 C 137.078125 70.289063 133.015625 73.527344 133.015625 80.488281 C 133.015625 87.457031 137.078125 90.714844 144.175781 90.714844 C 151.25 90.714844 155.304688 87.457031 155.304688 80.488281 C 155.304688 73.527344 151.25 70.289063 144.175781 70.289063 "/>
<path style=" stroke:none;fill-rule:evenodd;fill:rgb(10.998535%,5.899048%,3.898621%);fill-opacity:1;" d="M 35.273438 90.78125 C 35.921875 90.78125 36.417969 90.308594 36.417969 89.675781 L 36.417969 66.417969 C 36.417969 65.792969 35.921875 65.328125 35.273438 65.328125 L 31.089844 65.328125 C 30.453125 65.328125 29.957031 65.792969 29.957031 66.417969 L 29.957031 89.675781 C 29.957031 90.308594 30.453125 90.78125 31.089844 90.78125 "/>
<path style=" stroke:none;fill-rule:evenodd;fill:rgb(10.998535%,5.899048%,3.898621%);fill-opacity:1;" d="M 49.046875 86.863281 C 47.117188 86.863281 46.109375 85.898438 46.109375 84.609375 C 46.109375 83.386719 47.117188 82.449219 48.859375 82.449219 L 54.441406 82.449219 L 54.441406 85.234375 C 53.152344 86.042969 51.265625 86.863281 49.046875 86.863281 M 50.734375 74.164063 C 53.214844 74.164063 54.441406 75.195313 54.441406 78.582031 L 48.414063 78.582031 C 43.464844 78.582031 39.648438 80.554688 39.648438 84.609375 C 39.648438 88.660156 43.464844 90.714844 48.414063 90.714844 C 51.265625 90.714844 53.316406 89.925781 55.015625 88.816406 L 55.015625 89.328125 C 55.015625 89.8125 55.511719 90.28125 56.152344 90.28125 L 59.769531 90.28125 C 60.414063 90.28125 60.898438 89.8125 60.898438 89.234375 L 60.898438 78.582031 C 60.898438 72.367188 56.570313 70.171875 51.171875 70.171875 C 45.113281 70.171875 41.132813 71.492188 41.132813 75.292969 C 41.132813 75.921875 41.636719 76.386719 42.289063 76.386719 L 45.097656 76.386719 C 46.042969 76.386719 46.71875 76.019531 47.203125 75.4375 C 47.832031 74.671875 49.191406 74.164063 50.734375 74.164063 "/>
<path style=" stroke:none;fill-rule:evenodd;fill:rgb(10.998535%,5.899048%,3.898621%);fill-opacity:1;" d="M 75.433594 74.480469 C 77.371094 74.480469 78.765625 75.210938 79.410156 76.214844 C 79.921875 76.960938 80.578125 77.449219 81.519531 77.449219 L 84.265625 77.449219 C 84.917969 77.449219 85.410156 76.992188 85.410156 76.375 C 85.410156 72.242188 81.480469 70.203125 75 70.203125 C 68.074219 70.203125 64.132813 73.621094 64.132813 80.527344 C 64.132813 87.394531 68.027344 90.804688 75.164063 90.804688 C 81.6875 90.804688 85.597656 88.785156 85.597656 84.636719 C 85.597656 84.019531 85.109375 83.542969 84.449219 83.542969 L 81.714844 83.542969 C 80.769531 83.542969 80.117188 84.058594 79.59375 84.859375 C 78.949219 85.804688 77.5625 86.519531 75.640625 86.519531 C 71.859375 86.519531 70.601563 84.679688 70.601563 80.527344 C 70.601563 76.335938 71.859375 74.480469 75.433594 74.480469 "/>
<path style=" stroke:none;fill-rule:evenodd;fill:rgb(10.998535%,5.899048%,3.898621%);fill-opacity:1;" d="M 108.257813 82.394531 C 108.894531 82.394531 109.40625 81.917969 109.40625 81.289063 L 109.40625 80.25 C 109.40625 73.589844 105.351563 70.289063 98.515625 70.289063 C 91.679688 70.289063 87.621094 73.699219 87.621094 80.527344 C 87.621094 87.324219 91.644531 90.824219 98.515625 90.824219 C 104.667969 90.824219 108.71875 89.519531 108.71875 85.703125 C 108.71875 85.105469 108.214844 84.609375 107.585938 84.609375 L 104.832031 84.609375 C 103.890625 84.609375 103.203125 84.972656 102.714844 85.5625 C 102.046875 86.398438 100.609375 86.863281 98.984375 86.863281 C 95.785156 86.863281 94.386719 85.503906 94.125 82.394531 Z M 98.515625 74.164063 C 101.386719 74.164063 102.785156 75.691406 102.917969 78.640625 L 94.074219 78.640625 C 94.246094 75.691406 95.714844 74.164063 98.515625 74.164063 "/>
<path style=" stroke:none;fill-rule:evenodd;fill:rgb(10.998535%,5.899048%,3.898621%);fill-opacity:1;" d="M 176.246094 69.726563 C 179.851563 69.726563 182.519531 70.457031 182.519531 74.648438 C 182.519531 78.824219 179.851563 79.5625 176.246094 79.5625 L 169.582031 79.5625 L 169.582031 69.726563 Z M 164.324219 64.910156 C 163.371094 64.910156 162.617188 65.585938 162.617188 66.492188 L 162.617188 88.542969 C 162.617188 89.480469 163.394531 90.28125 164.359375 90.28125 L 167.859375 90.28125 C 168.832031 90.28125 169.582031 89.480469 169.582031 88.542969 L 169.582031 84.398438 L 178.347656 84.398438 C 185.367188 84.398438 189.503906 81.464844 189.503906 74.648438 C 189.503906 67.84375 185.367188 64.910156 178.347656 64.910156 "/>
<path style=" stroke:none;fill-rule:evenodd;fill:rgb(10.998535%,5.899048%,3.898621%);fill-opacity:1;" d="M 200.582031 86.863281 C 198.667969 86.863281 197.648438 85.898438 197.648438 84.609375 C 197.648438 83.386719 198.667969 82.449219 200.402344 82.449219 L 205.988281 82.449219 L 205.988281 85.234375 C 204.675781 86.042969 202.820313 86.863281 200.582031 86.863281 M 202.238281 74.164063 C 204.734375 74.164063 205.988281 75.195313 205.988281 78.582031 L 199.957031 78.582031 C 195.011719 78.582031 191.191406 80.554688 191.191406 84.609375 C 191.191406 88.660156 195.011719 90.714844 199.957031 90.714844 C 202.820313 90.714844 204.871094 89.925781 206.558594 88.816406 L 206.558594 89.328125 C 206.558594 89.8125 207.039063 90.28125 207.695313 90.28125 L 211.308594 90.28125 C 211.957031 90.28125 212.464844 89.8125 212.464844 89.234375 L 212.464844 78.582031 C 212.464844 72.367188 208.128906 70.171875 202.691406 70.171875 C 196.640625 70.171875 192.691406 71.492188 192.691406 75.292969 C 192.691406 75.921875 193.179688 76.386719 193.828125 76.386719 L 196.613281 76.386719 C 197.570313 76.386719 198.246094 76.019531 198.730469 75.4375 C 199.363281 74.671875 200.753906 74.164063 202.238281 74.164063 "/>
<g clip-path="url(#clip3)" clip-rule="nonzero">
<path style=" stroke:none;fill-rule:evenodd;fill:rgb(10.998535%,5.899048%,3.898621%);fill-opacity:1;" d="M 223.167969 97.328125 C 222.3125 97.328125 221.589844 97.019531 220.746094 97.019531 L 220.074219 97.019531 C 219.457031 97.019531 218.953125 97.5 218.953125 98.125 L 218.953125 100.121094 C 218.953125 100.675781 219.457031 101.121094 220.074219 101.238281 C 221.296875 101.441406 223.367188 101.601563 224.863281 101.601563 C 229.226563 101.601563 231.488281 94.261719 233.183594 88.4375 L 238.023438 71.785156 C 238.160156 71.242188 237.761719 70.730469 237.152344 70.730469 L 233.257813 70.730469 C 232.582031 70.730469 231.902344 71.242188 231.726563 71.933594 L 228.046875 84.414063 C 226.429688 84.414063 225.253906 83.316406 224.027344 79.464844 L 221.589844 71.933594 C 221.363281 71.242188 220.617188 70.730469 219.945313 70.730469 L 216.078125 70.730469 C 215.488281 70.730469 215.027344 71.242188 215.234375 71.785156 L 217.980469 80.402344 C 220.074219 86.964844 222.925781 88.71875 226.8125 88.71875 C 226.121094 91.175781 224.945313 97.328125 223.167969 97.328125 "/>
</g>
<g clip-path="url(#clip4)" clip-rule="nonzero">
<path style=" stroke:none;fill-rule:evenodd;fill:rgb(10.998535%,5.899048%,3.898621%);fill-opacity:1;" d="M 145.222656 27.269531 L 147.296875 34.828125 C 147.496094 36.363281 147.585938 37.113281 147.519531 37.113281 L 139.167969 37.113281 C 139.082031 37.113281 139.167969 36.363281 139.324219 34.828125 L 141.164063 27.300781 C 139.492188 26.5625 138.351563 24.925781 138.351563 23.039063 C 138.351563 20.4375 140.472656 18.328125 143.144531 18.328125 C 145.804688 18.328125 147.941406 20.4375 147.941406 23.039063 C 147.941406 24.902344 146.839844 26.527344 145.222656 27.269531 M 143.65625 0.046875 C 130.117188 0.046875 119.167969 10.773438 119.167969 24.015625 C 119.167969 34.195313 125.648438 42.902344 134.820313 46.367188 L 143.65625 66.765625 L 152.484375 46.367188 C 161.648438 42.902344 168.136719 34.195313 168.136719 24.015625 C 168.136719 10.773438 157.175781 0.046875 143.65625 0.046875 "/>
</g>
<g clip-path="url(#clip5)" clip-rule="nonzero">
<path style=" stroke:none;fill-rule:evenodd;fill:rgb(10.998535%,5.899048%,3.898621%);fill-opacity:1;" d="M 2.0625 64.910156 C 1.105469 64.910156 0.359375 65.589844 0.359375 66.492188 L 0.359375 100.800781 C 0.359375 101.769531 1.15625 102.570313 2.109375 102.570313 L 5.59375 102.570313 C 6.578125 102.570313 7.335938 101.769531 7.335938 100.800781 L 7.335938 84.394531 L 16.101563 84.394531 C 23.101563 84.394531 27.242188 81.464844 27.242188 74.648438 C 27.242188 67.84375 23.101563 64.910156 16.101563 64.910156 L 7.410156 64.910156 L 7.410156 69.726563 L 14.003906 69.726563 C 17.59375 69.726563 20.242188 70.457031 20.242188 74.648438 C 20.242188 78.824219 17.59375 79.5625 14.003906 79.5625 L 7.335938 79.5625 L 7.335938 69.726563 L 7.410156 69.726563 L 7.410156 64.910156 "/>
</g>
</g>
<clipPath id="clip6">
  <path d="M 0 64 L 27 64 L 27 102.570313 L 0 102.570313 Z M 0 64 "/>
</clipPath>
</defs>
<g id="surface1">
<g clip-path="url(#clip1)" clip-rule="nonzero">
<use xlink:href="#surface4" transform="matrix(1,0,0,1,0,-0.000000000000005676)" mask="url(#mask0)"/>
</g>
<path style=" stroke:none;fill-rule:evenodd;fill:rgb(52.198792%,68.199158%,23.498535%);fill-opacity:1;" d="M 129.777344 90.425781 C 130.421875 90.308594 130.925781 89.890625 130.925781 89.375 L 130.925781 87.535156 C 130.925781 86.953125 130.421875 86.484375 129.777344 86.484375 L 129.097656 86.484375 C 128.28125 86.484375 127.550781 86.695313 126.566406 86.695313 C 124.644531 86.695313 123.320313 85.359375 123.320313 82.78125 L 123.320313 75.992188 L 128.464844 75.992188 C 129.097656 75.992188 129.609375 75.511719 129.609375 74.902344 L 129.609375 72.789063 C 129.609375 72.195313 129.097656 71.710938 128.464844 71.710938 L 123.320313 71.710938 L 123.320313 65.875 C 123.320313 65.269531 122.839844 64.804688 122.167969 64.804688 L 117.988281 64.804688 C 117.355469 64.804688 116.847656 65.269531 116.847656 65.875 L 116.847656 82.78125 C 116.847656 88.308594 119.535156 90.78125 124.871094 90.78125 C 126.566406 90.78125 128.652344 90.632813 129.777344 90.425781 "/>
<path style=" stroke:none;fill-rule:evenodd;fill:rgb(52.198792%,68.199158%,23.498535%);fill-opacity:1;" d="M 143.824219 86.828125 C 140.648438 86.828125 139.121094 84.953125 139.121094 80.441406 C 139.121094 75.9375 140.648438 74.105469 143.824219 74.105469 C 146.980469 74.105469 148.480469 75.9375 148.480469 80.441406 C 148.480469 84.953125 146.980469 86.828125 143.824219 86.828125 M 143.824219 70.242188 C 136.714844 70.242188 132.640625 73.5 132.640625 80.441406 C 132.640625 87.417969 136.714844 90.695313 143.824219 90.695313 C 150.890625 90.695313 154.953125 87.417969 154.953125 80.441406 C 154.953125 73.5 150.890625 70.242188 143.824219 70.242188 "/>
<path style=" stroke:none;fill-rule:evenodd;fill:rgb(34.098816%,36.499023%,32.199097%);fill-opacity:1;" d="M 34.921875 90.734375 C 35.582031 90.734375 36.074219 90.265625 36.074219 89.664063 L 36.074219 66.375 C 36.074219 65.769531 35.582031 65.292969 34.921875 65.292969 L 30.738281 65.292969 C 30.089844 65.292969 29.601563 65.769531 29.601563 66.375 L 29.601563 89.664063 C 29.601563 90.265625 30.089844 90.734375 30.738281 90.734375 "/>
<path style=" stroke:none;fill-rule:evenodd;fill:rgb(34.098816%,36.499023%,32.199097%);fill-opacity:1;" d="M 48.6875 86.828125 C 46.753906 86.828125 45.769531 85.855469 45.769531 84.582031 C 45.769531 83.359375 46.753906 82.402344 48.511719 82.402344 L 54.089844 82.402344 L 54.089844 85.203125 C 52.792969 86.003906 50.925781 86.828125 48.6875 86.828125 M 50.367188 74.105469 C 52.859375 74.105469 54.089844 75.152344 54.089844 78.542969 L 48.0625 78.542969 C 43.109375 78.542969 39.292969 80.515625 39.292969 84.582031 C 39.292969 88.632813 43.109375 90.695313 48.0625 90.695313 C 50.925781 90.695313 52.972656 89.890625 54.65625 88.785156 L 54.65625 89.289063 C 54.65625 89.789063 55.167969 90.25 55.808594 90.25 L 59.410156 90.25 C 60.054688 90.25 60.546875 89.789063 60.546875 89.179688 L 60.546875 78.542969 C 60.546875 72.34375 56.226563 70.136719 50.816406 70.136719 C 44.769531 70.136719 40.78125 71.453125 40.78125 75.269531 C 40.78125 75.882813 41.277344 76.371094 41.925781 76.371094 L 44.730469 76.371094 C 45.691406 76.371094 46.355469 75.992188 46.839844 75.410156 C 47.460938 74.636719 48.847656 74.105469 50.367188 74.105469 "/>
<path style=" stroke:none;fill-rule:evenodd;fill:rgb(34.098816%,36.499023%,32.199097%);fill-opacity:1;" d="M 75.085938 74.445313 C 77.019531 74.445313 78.40625 75.171875 79.058594 76.179688 C 79.582031 76.921875 80.226563 77.421875 81.171875 77.421875 L 83.929688 77.421875 C 84.5625 77.421875 85.074219 76.960938 85.074219 76.335938 C 85.074219 72.214844 81.136719 70.171875 74.644531 70.171875 C 67.730469 70.171875 63.785156 73.578125 63.785156 80.488281 C 63.785156 87.355469 67.675781 90.78125 74.816406 90.78125 C 81.316406 90.78125 85.242188 88.738281 85.242188 84.597656 C 85.242188 83.96875 84.761719 83.523438 84.097656 83.523438 L 81.355469 83.523438 C 80.414063 83.523438 79.773438 84.027344 79.25 84.824219 C 78.609375 85.773438 77.207031 86.484375 75.28125 86.484375 C 71.492188 86.484375 70.242188 84.636719 70.242188 80.488281 C 70.242188 76.300781 71.492188 74.445313 75.085938 74.445313 "/>
<path style=" stroke:none;fill-rule:evenodd;fill:rgb(34.098816%,36.499023%,32.199097%);fill-opacity:1;" d="M 107.914063 82.359375 C 108.554688 82.359375 109.042969 81.878906 109.042969 81.25 L 109.042969 80.242188 C 109.042969 73.550781 105.007813 70.242188 98.160156 70.242188 C 91.351563 70.242188 87.25 73.667969 87.25 80.488281 C 87.25 87.285156 91.300781 90.804688 98.160156 90.804688 C 104.320313 90.804688 108.371094 89.480469 108.371094 85.679688 C 108.371094 85.050781 107.859375 84.582031 107.226563 84.582031 L 104.464844 84.582031 C 103.527344 84.582031 102.855469 84.933594 102.347656 85.527344 C 101.714844 86.363281 100.257813 86.828125 98.628906 86.828125 C 95.441406 86.828125 94.027344 85.464844 93.765625 82.359375 Z M 98.160156 74.109375 C 101.039063 74.109375 102.4375 75.65625 102.5625 78.582031 L 93.722656 78.582031 C 93.871094 75.65625 95.355469 74.109375 98.160156 74.109375 "/>
<path style=" stroke:none;fill-rule:evenodd;fill:rgb(37.599182%,39.99939%,35.299683%);fill-opacity:1;" d="M 175.910156 69.695313 C 179.511719 69.695313 182.152344 70.441406 182.152344 74.613281 C 182.152344 78.777344 179.511719 79.511719 175.910156 79.511719 L 169.226563 79.511719 L 169.226563 69.695313 Z M 163.972656 64.851563 C 163.015625 64.851563 162.261719 65.554688 162.261719 66.476563 L 162.261719 88.507813 C 162.261719 89.460938 163.054688 90.25 164.007813 90.25 L 167.484375 90.25 C 168.476563 90.25 169.226563 89.460938 169.226563 88.507813 L 169.226563 84.359375 L 178.011719 84.359375 C 185.007813 84.359375 189.132813 81.417969 189.132813 74.613281 C 189.132813 67.800781 185.007813 64.851563 178.011719 64.851563 "/>
<path style=" stroke:none;fill-rule:evenodd;fill:rgb(37.599182%,39.99939%,35.299683%);fill-opacity:1;" d="M 200.238281 86.828125 C 198.300781 86.828125 197.296875 85.855469 197.296875 84.582031 C 197.296875 83.359375 198.300781 82.402344 200.046875 82.402344 L 205.621094 82.402344 L 205.621094 85.203125 C 204.328125 86.003906 202.46875 86.828125 200.238281 86.828125 M 201.910156 74.105469 C 204.410156 74.105469 205.621094 75.152344 205.621094 78.542969 L 199.613281 78.542969 C 194.664063 78.542969 190.828125 80.515625 190.828125 84.582031 C 190.828125 88.632813 194.664063 90.695313 199.613281 90.695313 C 202.46875 90.695313 204.519531 89.890625 206.1875 88.785156 L 206.1875 89.289063 C 206.1875 89.789063 206.695313 90.25 207.351563 90.25 L 210.953125 90.25 C 211.59375 90.25 212.089844 89.789063 212.089844 89.179688 L 212.089844 78.542969 C 212.089844 72.34375 207.765625 70.136719 202.363281 70.136719 C 196.308594 70.136719 192.328125 71.453125 192.328125 75.269531 C 192.328125 75.882813 192.808594 76.371094 193.476563 76.371094 L 196.265625 76.371094 C 197.222656 76.371094 197.90625 75.992188 198.378906 75.410156 C 199.003906 74.636719 200.402344 74.105469 201.910156 74.105469 "/>
<path style=" stroke:none;fill-rule:evenodd;fill:rgb(37.599182%,39.99939%,35.299683%);fill-opacity:1;" d="M 222.820313 97.28125 C 221.964844 97.28125 221.253906 96.976563 220.417969 96.976563 L 219.742188 96.976563 C 219.109375 96.976563 218.59375 97.457031 218.59375 98.085938 L 218.59375 100.085938 C 218.59375 100.644531 219.109375 101.078125 219.742188 101.199219 C 220.945313 101.421875 223.007813 101.570313 224.539063 101.570313 C 228.871094 101.570313 231.136719 94.226563 232.824219 88.386719 L 237.675781 71.753906 C 237.804688 71.191406 237.40625 70.695313 236.808594 70.695313 L 232.929688 70.695313 C 232.230469 70.695313 231.539063 71.191406 231.359375 71.878906 L 227.703125 84.359375 C 226.078125 84.359375 224.910156 83.285156 223.660156 79.457031 L 221.253906 71.878906 C 221.007813 71.191406 220.269531 70.695313 219.59375 70.695313 L 215.71875 70.695313 C 215.140625 70.695313 214.671875 71.191406 214.859375 71.753906 L 217.628906 80.359375 C 219.742188 86.925781 222.5625 88.699219 226.460938 88.699219 C 225.777344 91.132813 224.601563 97.28125 222.820313 97.28125 "/>
<path style=" stroke:none;fill-rule:evenodd;fill:rgb(52.89917%,67.799377%,24.699402%);fill-opacity:1;" d="M 144.851563 27.238281 L 146.9375 34.792969 C 147.148438 36.316406 147.234375 37.089844 147.160156 37.089844 L 138.820313 37.089844 C 138.734375 37.089844 138.820313 36.316406 138.988281 34.792969 L 140.800781 27.269531 C 139.136719 26.527344 137.996094 24.894531 137.996094 22.992188 C 137.996094 20.417969 140.140625 18.289063 142.792969 18.289063 C 145.445313 18.289063 147.585938 20.417969 147.585938 22.992188 C 147.585938 24.859375 146.484375 26.46875 144.851563 27.238281 M 143.308594 0 C 129.777344 0 118.816406 10.746094 118.816406 23.984375 C 118.816406 34.160156 125.285156 42.871094 134.464844 46.339844 L 143.308594 66.730469 L 152.125 46.339844 C 161.296875 42.871094 167.78125 34.160156 167.78125 23.984375 C 167.78125 10.746094 156.835938 0 143.308594 0 "/>
<g clip-path="url(#clip6)" clip-rule="nonzero">
<path style=" stroke:none;fill-rule:evenodd;fill:rgb(34.098816%,36.499023%,32.199097%);fill-opacity:1;" d="M 1.714844 64.851563 C 0.75 64.851563 0 65.554688 0 66.476563 L 0 100.777344 C 0 101.722656 0.808594 102.511719 1.757813 102.511719 L 5.246094 102.511719 C 6.230469 102.511719 6.992188 101.722656 6.992188 100.777344 L 6.992188 84.359375 L 15.738281 84.359375 C 22.734375 84.359375 26.886719 81.417969 26.886719 74.613281 C 26.886719 67.800781 22.734375 64.851563 15.738281 64.851563 L 7.066406 64.851563 L 7.066406 69.695313 L 13.660156 69.695313 C 17.257813 69.695313 19.914063 70.441406 19.914063 74.613281 C 19.914063 78.777344 17.257813 79.515625 13.660156 79.515625 L 6.992188 79.515625 L 6.992188 69.695313 L 7.066406 69.695313 L 7.066406 64.851563 "/>
</g>
</g>
</svg>
